<?xml version="1.0" standalone="no"?>
<!DOCTYPE svg PUBLIC "-//W3C//DTD SVG 20010904//EN"
 "http://www.w3.org/TR/2001/REC-SVG-20010904/DTD/svg10.dtd">
<svg version="1.0" xmlns="http://www.w3.org/2000/svg"
 width="571.000000pt" height="574.000000pt" viewBox="0 0 571.000000 574.000000"
 preserveAspectRatio="xMidYMid meet">
<metadata>
Created by potrace 1.16, written by Peter Selinger 2001-2019
</metadata>
<g transform="translate(0.000000,574.000000) scale(0.100000,-0.100000)"
fill="#000000" stroke="none">
<path d="M0 2870 l0 -2870 2855 0 2855 0 0 2870 0 2870 -952 0 c-524 0 -948
-4 -943 -8 6 -4 28 -21 50 -37 57 -42 58 -43 133 -117 38 -36 85 -88 105 -114
20 -26 46 -53 57 -61 11 -8 30 -33 41 -56 12 -23 28 -50 37 -60 17 -19 76
-129 123 -227 33 -70 93 -260 103 -325 4 -22 11 -69 16 -105 10 -65 59 -402
65 -450 31 -246 39 -283 66 -321 25 -37 59 -68 72 -69 5 0 42 -23 82 -50 74
-52 177 -154 230 -231 19 -27 64 -66 115 -100 97 -64 130 -114 138 -207 4 -51
-19 -132 -38 -132 -10 0 -20 38 -20 78 0 46 -14 68 -51 81 -40 14 -99 14 -99
1 0 -19 -39 -10 -51 11 l-11 21 -15 -21 c-18 -26 -31 -19 -49 26 -14 33 -34
37 -34 7 0 -8 -4 -14 -8 -14 -16 0 -32 25 -32 49 -1 37 -25 65 -50 58 -13 -3
-23 0 -26 8 -8 20 -34 27 -50 14 -11 -9 -14 -8 -14 5 0 38 -30 64 -81 71 -37
5 -60 16 -84 39 -19 17 -61 54 -95 81 -34 28 -75 62 -91 76 -27 24 -112 57
-132 51 -23 -7 -196 23 -222 38 -16 10 -64 25 -105 34 -41 9 -95 23 -120 30
-25 8 -65 19 -90 25 -25 7 -67 19 -95 26 -27 8 -60 17 -73 20 -12 4 -30 15
-40 24 -9 10 -42 24 -72 31 -30 7 -75 21 -100 31 -25 10 -92 30 -150 45 -58
15 -113 34 -123 43 -10 9 -58 21 -110 28 -174 23 -456 86 -538 119 -32 13 -77
26 -100 29 -24 3 -95 23 -158 44 -128 44 -152 48 -290 56 -104 6 -196 -4 -381
-41 -233 -47 -275 -57 -295 -71 -28 -19 -58 -16 -79 8 -16 19 -26 21 -87 17
-53 -4 -69 -2 -69 8 0 7 6 17 13 21 8 4 35 49 62 100 l49 92 -21 88 c-45 187
-45 190 -31 212 11 18 9 32 -15 98 -26 74 -27 85 -23 223 3 80 10 158 16 174
14 37 143 191 178 213 15 10 43 31 63 48 20 16 67 52 104 79 57 41 99 63 235
124 19 8 -178 11 -762 11 l-788 1 0 -2870z m2909 264 c18 -9 37 -28 42 -43 21
-54 56 -88 105 -100 26 -7 64 -21 85 -32 37 -18 39 -22 39 -68 0 -41 4 -52 32
-76 90 -81 217 -111 290 -68 41 24 50 65 19 91 -29 24 -15 40 50 57 30 8 55
19 57 25 9 27 36 41 67 36 22 -4 48 1 86 17 55 25 171 39 220 28 69 -16 154
-124 170 -217 15 -94 4 -365 -22 -516 -9 -51 -9 -71 -1 -81 7 -8 49 -22 95
-31 90 -19 195 -54 203 -67 3 -5 15 -9 28 -9 12 0 54 -11 92 -24 38 -13 81
-27 97 -30 18 -4 27 -13 27 -26 0 -21 35 -50 61 -50 9 0 22 -7 29 -15 7 -8 20
-15 29 -15 10 0 28 -11 41 -25 13 -14 29 -25 35 -25 7 0 17 -10 23 -22 7 -13
29 -47 50 -76 44 -62 41 -51 48 -162 4 -75 2 -89 -16 -119 -19 -31 -25 -33
-59 -28 -24 3 -62 22 -102 51 -34 25 -69 46 -75 46 -7 0 -26 24 -43 53 -17 29
-38 61 -48 69 -25 23 -139 37 -193 24 -40 -10 -43 -13 -45 -48 -1 -20 -9 -43
-17 -51 -20 -20 -15 -126 12 -272 5 -27 9 -73 9 -102 1 -28 5 -54 10 -58 22
-13 51 -133 50 -206 0 -41 4 -89 10 -108 6 -19 13 -68 17 -110 4 -42 15 -93
25 -113 11 -20 24 -70 30 -110 6 -40 17 -85 25 -100 27 -51 18 -85 -42 -161
-34 -45 -53 -79 -50 -89 3 -14 -2 -18 -20 -18 -13 0 -23 3 -22 8 3 8 -5 12
-24 12 -9 0 -8 -4 2 -10 10 -6 -73 -10 -243 -10 l-258 0 12 21 c8 17 7 33 -6
76 -13 39 -16 71 -11 111 4 38 1 77 -9 116 -9 32 -15 84 -13 115 1 39 -4 66
-17 91 -14 26 -20 57 -21 120 -1 57 -7 98 -19 125 -10 23 -18 67 -19 102 -1
34 -4 65 -8 69 -5 4 -8 16 -8 26 0 11 -6 26 -14 33 -11 11 -13 3 -13 -53 2
-178 -35 -446 -67 -497 -6 -11 -18 -39 -24 -63 -7 -23 -16 -42 -20 -43 -4 0
-16 -3 -27 -6 -41 -11 -107 -15 -140 -9 -27 5 -36 13 -41 34 -13 62 -26 92
-39 92 -18 0 -85 66 -85 83 0 7 -11 24 -25 37 -20 19 -25 33 -25 72 0 34 5 50
15 54 8 4 15 15 15 26 0 10 13 36 29 56 16 20 34 54 41 74 6 20 22 47 35 60
14 13 25 29 25 36 0 7 7 15 15 18 8 4 24 23 36 43 12 20 43 54 69 76 26 22 55
52 63 66 9 14 34 45 57 67 22 23 40 45 40 50 -1 20 -51 105 -69 118 -11 8 -26
34 -32 57 -15 52 -34 74 -79 94 -80 35 -104 35 -169 3 -33 -17 -63 -30 -67
-30 -4 0 -17 -8 -28 -18 -12 -10 -39 -24 -61 -31 -34 -11 -50 -10 -103 4 -44
11 -100 15 -185 14 -138 -2 -168 6 -197 53 -26 42 -20 110 18 186 19 40 30 52
45 50 25 -4 31 -15 58 -105 13 -44 27 -73 35 -73 17 0 17 36 0 115 -12 55 -11
63 7 100 11 22 24 43 29 46 11 7 58 0 73 -11 28 -20 84 -20 119 1 44 26 45 46
6 84 -33 32 -65 36 -161 20 -38 -6 -53 -3 -95 18 -109 55 -141 113 -163 295
-16 124 3 476 30 562 31 103 50 140 70 140 10 0 21 5 24 10 9 14 27 12 64 -6z
m2312 -465 c39 -74 84 -152 99 -174 53 -78 98 -152 120 -196 46 -91 205 -331
232 -350 36 -26 35 -45 -4 -65 -86 -44 -179 34 -291 248 -46 89 -88 154 -138
218 -35 44 -94 170 -110 235 -6 28 -20 64 -30 81 -25 41 -24 49 8 136 l27 73
8 -36 c4 -19 39 -96 79 -170z m-1870 -1191 c13 -26 71 -84 91 -90 18 -6 16
-151 -3 -203 -11 -31 -20 -41 -41 -43 -34 -4 -59 -35 -100 -124 -7 -17 -35
-39 -71 -59 -49 -26 -66 -30 -99 -25 -47 8 -128 52 -128 70 0 19 71 86 91 86
39 0 128 41 145 68 10 15 24 33 31 41 8 7 13 25 11 40 -2 20 -9 27 -30 29 -18
2 -30 12 -38 33 -14 34 -17 34 -86 12 -49 -15 -54 -15 -78 1 -31 20 -35 65 -8
89 30 26 129 67 165 67 19 0 50 7 68 15 48 20 67 18 80 -7z m-1387 -1160 c9
-12 16 -29 16 -38 0 -8 18 -37 40 -64 22 -26 40 -50 40 -52 0 -2 -127 -3 -282
-3 -156 1 -272 4 -259 6 26 5 40 15 73 51 15 15 33 22 57 22 71 0 108 11 119
35 8 18 21 23 71 29 34 4 67 13 74 21 17 20 34 18 51 -7z"/>
</g>
</svg>
